%TF.GenerationSoftware,KiCad,Pcbnew,8.0.8*%
%TF.CreationDate,2025-02-20T14:02:33+09:00*%
%TF.ProjectId,CABLE-ADAPTER-SEGGER,4341424c-452d-4414-9441-505445522d53,rev?*%
%TF.SameCoordinates,PX3938700PY42c1d80*%
%TF.FileFunction,Legend,Bot*%
%TF.FilePolarity,Positive*%
%FSLAX46Y46*%
G04 Gerber Fmt 4.6, Leading zero omitted, Abs format (unit mm)*
G04 Created by KiCad (PCBNEW 8.0.8) date 2025-02-20 14:02:33*
%MOMM*%
%LPD*%
G01*
G04 APERTURE LIST*
%ADD10C,0.250000*%
G04 APERTURE END LIST*
D10*
X37949812Y5058810D02*
X37949812Y6658810D01*
X37949812Y5896905D02*
X37264098Y5896905D01*
X37264098Y5058810D02*
X37264098Y6658810D01*
X36178384Y5058810D02*
X36178384Y5896905D01*
X36178384Y5896905D02*
X36235526Y6049286D01*
X36235526Y6049286D02*
X36349812Y6125477D01*
X36349812Y6125477D02*
X36578384Y6125477D01*
X36578384Y6125477D02*
X36692669Y6049286D01*
X36178384Y5135000D02*
X36292669Y5058810D01*
X36292669Y5058810D02*
X36578384Y5058810D01*
X36578384Y5058810D02*
X36692669Y5135000D01*
X36692669Y5135000D02*
X36749812Y5287381D01*
X36749812Y5287381D02*
X36749812Y5439762D01*
X36749812Y5439762D02*
X36692669Y5592143D01*
X36692669Y5592143D02*
X36578384Y5668334D01*
X36578384Y5668334D02*
X36292669Y5668334D01*
X36292669Y5668334D02*
X36178384Y5744524D01*
X35606955Y5058810D02*
X35606955Y6125477D01*
X35606955Y5820715D02*
X35549812Y5973096D01*
X35549812Y5973096D02*
X35492670Y6049286D01*
X35492670Y6049286D02*
X35378384Y6125477D01*
X35378384Y6125477D02*
X35264098Y6125477D01*
X34349813Y5058810D02*
X34349813Y6658810D01*
X34349813Y5135000D02*
X34464098Y5058810D01*
X34464098Y5058810D02*
X34692670Y5058810D01*
X34692670Y5058810D02*
X34806955Y5135000D01*
X34806955Y5135000D02*
X34864098Y5211191D01*
X34864098Y5211191D02*
X34921241Y5363572D01*
X34921241Y5363572D02*
X34921241Y5820715D01*
X34921241Y5820715D02*
X34864098Y5973096D01*
X34864098Y5973096D02*
X34806955Y6049286D01*
X34806955Y6049286D02*
X34692670Y6125477D01*
X34692670Y6125477D02*
X34464098Y6125477D01*
X34464098Y6125477D02*
X34349813Y6049286D01*
X33892670Y6125477D02*
X33664099Y5058810D01*
X33664099Y5058810D02*
X33435527Y5820715D01*
X33435527Y5820715D02*
X33206956Y5058810D01*
X33206956Y5058810D02*
X32978384Y6125477D01*
X32006956Y5058810D02*
X32006956Y5896905D01*
X32006956Y5896905D02*
X32064098Y6049286D01*
X32064098Y6049286D02*
X32178384Y6125477D01*
X32178384Y6125477D02*
X32406956Y6125477D01*
X32406956Y6125477D02*
X32521241Y6049286D01*
X32006956Y5135000D02*
X32121241Y5058810D01*
X32121241Y5058810D02*
X32406956Y5058810D01*
X32406956Y5058810D02*
X32521241Y5135000D01*
X32521241Y5135000D02*
X32578384Y5287381D01*
X32578384Y5287381D02*
X32578384Y5439762D01*
X32578384Y5439762D02*
X32521241Y5592143D01*
X32521241Y5592143D02*
X32406956Y5668334D01*
X32406956Y5668334D02*
X32121241Y5668334D01*
X32121241Y5668334D02*
X32006956Y5744524D01*
X31435527Y5058810D02*
X31435527Y6125477D01*
X31435527Y5820715D02*
X31378384Y5973096D01*
X31378384Y5973096D02*
X31321242Y6049286D01*
X31321242Y6049286D02*
X31206956Y6125477D01*
X31206956Y6125477D02*
X31092670Y6125477D01*
X30235527Y5135000D02*
X30349813Y5058810D01*
X30349813Y5058810D02*
X30578385Y5058810D01*
X30578385Y5058810D02*
X30692670Y5135000D01*
X30692670Y5135000D02*
X30749813Y5287381D01*
X30749813Y5287381D02*
X30749813Y5896905D01*
X30749813Y5896905D02*
X30692670Y6049286D01*
X30692670Y6049286D02*
X30578385Y6125477D01*
X30578385Y6125477D02*
X30349813Y6125477D01*
X30349813Y6125477D02*
X30235527Y6049286D01*
X30235527Y6049286D02*
X30178385Y5896905D01*
X30178385Y5896905D02*
X30178385Y5744524D01*
X30178385Y5744524D02*
X30749813Y5592143D01*
X29664099Y5058810D02*
X29664099Y6658810D01*
X29664099Y6658810D02*
X29378385Y6658810D01*
X29378385Y6658810D02*
X29206956Y6582620D01*
X29206956Y6582620D02*
X29092671Y6430239D01*
X29092671Y6430239D02*
X29035528Y6277858D01*
X29035528Y6277858D02*
X28978385Y5973096D01*
X28978385Y5973096D02*
X28978385Y5744524D01*
X28978385Y5744524D02*
X29035528Y5439762D01*
X29035528Y5439762D02*
X29092671Y5287381D01*
X29092671Y5287381D02*
X29206956Y5135000D01*
X29206956Y5135000D02*
X29378385Y5058810D01*
X29378385Y5058810D02*
X29664099Y5058810D01*
X28464099Y5058810D02*
X28464099Y6125477D01*
X28464099Y5820715D02*
X28406956Y5973096D01*
X28406956Y5973096D02*
X28349814Y6049286D01*
X28349814Y6049286D02*
X28235528Y6125477D01*
X28235528Y6125477D02*
X28121242Y6125477D01*
X27264099Y5135000D02*
X27378385Y5058810D01*
X27378385Y5058810D02*
X27606957Y5058810D01*
X27606957Y5058810D02*
X27721242Y5135000D01*
X27721242Y5135000D02*
X27778385Y5287381D01*
X27778385Y5287381D02*
X27778385Y5896905D01*
X27778385Y5896905D02*
X27721242Y6049286D01*
X27721242Y6049286D02*
X27606957Y6125477D01*
X27606957Y6125477D02*
X27378385Y6125477D01*
X27378385Y6125477D02*
X27264099Y6049286D01*
X27264099Y6049286D02*
X27206957Y5896905D01*
X27206957Y5896905D02*
X27206957Y5744524D01*
X27206957Y5744524D02*
X27778385Y5592143D01*
X26178386Y5058810D02*
X26178386Y5896905D01*
X26178386Y5896905D02*
X26235528Y6049286D01*
X26235528Y6049286D02*
X26349814Y6125477D01*
X26349814Y6125477D02*
X26578386Y6125477D01*
X26578386Y6125477D02*
X26692671Y6049286D01*
X26178386Y5135000D02*
X26292671Y5058810D01*
X26292671Y5058810D02*
X26578386Y5058810D01*
X26578386Y5058810D02*
X26692671Y5135000D01*
X26692671Y5135000D02*
X26749814Y5287381D01*
X26749814Y5287381D02*
X26749814Y5439762D01*
X26749814Y5439762D02*
X26692671Y5592143D01*
X26692671Y5592143D02*
X26578386Y5668334D01*
X26578386Y5668334D02*
X26292671Y5668334D01*
X26292671Y5668334D02*
X26178386Y5744524D01*
X25606957Y5058810D02*
X25606957Y6125477D01*
X25606957Y5973096D02*
X25549814Y6049286D01*
X25549814Y6049286D02*
X25435529Y6125477D01*
X25435529Y6125477D02*
X25264100Y6125477D01*
X25264100Y6125477D02*
X25149814Y6049286D01*
X25149814Y6049286D02*
X25092672Y5896905D01*
X25092672Y5896905D02*
X25092672Y5058810D01*
X25092672Y5896905D02*
X25035529Y6049286D01*
X25035529Y6049286D02*
X24921243Y6125477D01*
X24921243Y6125477D02*
X24749814Y6125477D01*
X24749814Y6125477D02*
X24635529Y6049286D01*
X24635529Y6049286D02*
X24578386Y5896905D01*
X24578386Y5896905D02*
X24578386Y5058810D01*
X24064100Y5135000D02*
X23949814Y5058810D01*
X23949814Y5058810D02*
X23721243Y5058810D01*
X23721243Y5058810D02*
X23606957Y5135000D01*
X23606957Y5135000D02*
X23549814Y5287381D01*
X23549814Y5287381D02*
X23549814Y5363572D01*
X23549814Y5363572D02*
X23606957Y5515953D01*
X23606957Y5515953D02*
X23721243Y5592143D01*
X23721243Y5592143D02*
X23892672Y5592143D01*
X23892672Y5592143D02*
X24006957Y5668334D01*
X24006957Y5668334D02*
X24064100Y5820715D01*
X24064100Y5820715D02*
X24064100Y5896905D01*
X24064100Y5896905D02*
X24006957Y6049286D01*
X24006957Y6049286D02*
X23892672Y6125477D01*
X23892672Y6125477D02*
X23721243Y6125477D01*
X23721243Y6125477D02*
X23606957Y6049286D01*
X10506955Y2806429D02*
X10449812Y2882620D01*
X10449812Y2882620D02*
X10335527Y2958810D01*
X10335527Y2958810D02*
X10049812Y2958810D01*
X10049812Y2958810D02*
X9935527Y2882620D01*
X9935527Y2882620D02*
X9878384Y2806429D01*
X9878384Y2806429D02*
X9821241Y2654048D01*
X9821241Y2654048D02*
X9821241Y2501667D01*
X9821241Y2501667D02*
X9878384Y2273096D01*
X9878384Y2273096D02*
X10564098Y1358810D01*
X10564098Y1358810D02*
X9821241Y1358810D01*
X9078384Y2958810D02*
X8964098Y2958810D01*
X8964098Y2958810D02*
X8849812Y2882620D01*
X8849812Y2882620D02*
X8792670Y2806429D01*
X8792670Y2806429D02*
X8735527Y2654048D01*
X8735527Y2654048D02*
X8678384Y2349286D01*
X8678384Y2349286D02*
X8678384Y1968334D01*
X8678384Y1968334D02*
X8735527Y1663572D01*
X8735527Y1663572D02*
X8792670Y1511191D01*
X8792670Y1511191D02*
X8849812Y1435000D01*
X8849812Y1435000D02*
X8964098Y1358810D01*
X8964098Y1358810D02*
X9078384Y1358810D01*
X9078384Y1358810D02*
X9192670Y1435000D01*
X9192670Y1435000D02*
X9249812Y1511191D01*
X9249812Y1511191D02*
X9306955Y1663572D01*
X9306955Y1663572D02*
X9364098Y1968334D01*
X9364098Y1968334D02*
X9364098Y2349286D01*
X9364098Y2349286D02*
X9306955Y2654048D01*
X9306955Y2654048D02*
X9249812Y2806429D01*
X9249812Y2806429D02*
X9192670Y2882620D01*
X9192670Y2882620D02*
X9078384Y2958810D01*
X8221241Y2806429D02*
X8164098Y2882620D01*
X8164098Y2882620D02*
X8049813Y2958810D01*
X8049813Y2958810D02*
X7764098Y2958810D01*
X7764098Y2958810D02*
X7649813Y2882620D01*
X7649813Y2882620D02*
X7592670Y2806429D01*
X7592670Y2806429D02*
X7535527Y2654048D01*
X7535527Y2654048D02*
X7535527Y2501667D01*
X7535527Y2501667D02*
X7592670Y2273096D01*
X7592670Y2273096D02*
X8278384Y1358810D01*
X8278384Y1358810D02*
X7535527Y1358810D01*
X6449813Y2958810D02*
X7021241Y2958810D01*
X7021241Y2958810D02*
X7078384Y2196905D01*
X7078384Y2196905D02*
X7021241Y2273096D01*
X7021241Y2273096D02*
X6906956Y2349286D01*
X6906956Y2349286D02*
X6621241Y2349286D01*
X6621241Y2349286D02*
X6506956Y2273096D01*
X6506956Y2273096D02*
X6449813Y2196905D01*
X6449813Y2196905D02*
X6392670Y2044524D01*
X6392670Y2044524D02*
X6392670Y1663572D01*
X6392670Y1663572D02*
X6449813Y1511191D01*
X6449813Y1511191D02*
X6506956Y1435000D01*
X6506956Y1435000D02*
X6621241Y1358810D01*
X6621241Y1358810D02*
X6906956Y1358810D01*
X6906956Y1358810D02*
X7021241Y1435000D01*
X7021241Y1435000D02*
X7078384Y1511191D01*
X5878384Y1968334D02*
X4964099Y1968334D01*
X3992670Y2196905D02*
X4392670Y2196905D01*
X4392670Y1358810D02*
X4392670Y2958810D01*
X4392670Y2958810D02*
X3821242Y2958810D01*
X3364099Y2196905D02*
X2964099Y2196905D01*
X2792671Y1358810D02*
X3364099Y1358810D01*
X3364099Y1358810D02*
X3364099Y2958810D01*
X3364099Y2958810D02*
X2792671Y2958810D01*
X1878385Y2196905D02*
X1706957Y2120715D01*
X1706957Y2120715D02*
X1649814Y2044524D01*
X1649814Y2044524D02*
X1592671Y1892143D01*
X1592671Y1892143D02*
X1592671Y1663572D01*
X1592671Y1663572D02*
X1649814Y1511191D01*
X1649814Y1511191D02*
X1706957Y1435000D01*
X1706957Y1435000D02*
X1821242Y1358810D01*
X1821242Y1358810D02*
X2278385Y1358810D01*
X2278385Y1358810D02*
X2278385Y2958810D01*
X2278385Y2958810D02*
X1878385Y2958810D01*
X1878385Y2958810D02*
X1764100Y2882620D01*
X1764100Y2882620D02*
X1706957Y2806429D01*
X1706957Y2806429D02*
X1649814Y2654048D01*
X1649814Y2654048D02*
X1649814Y2501667D01*
X1649814Y2501667D02*
X1706957Y2349286D01*
X1706957Y2349286D02*
X1764100Y2273096D01*
X1764100Y2273096D02*
X1878385Y2196905D01*
X1878385Y2196905D02*
X2278385Y2196905D01*
X26007142Y16287101D02*
X26064285Y16210910D01*
X26064285Y16210910D02*
X26235713Y16134720D01*
X26235713Y16134720D02*
X26349999Y16134720D01*
X26349999Y16134720D02*
X26521428Y16210910D01*
X26521428Y16210910D02*
X26635713Y16363291D01*
X26635713Y16363291D02*
X26692856Y16515672D01*
X26692856Y16515672D02*
X26749999Y16820434D01*
X26749999Y16820434D02*
X26749999Y17049006D01*
X26749999Y17049006D02*
X26692856Y17353768D01*
X26692856Y17353768D02*
X26635713Y17506149D01*
X26635713Y17506149D02*
X26521428Y17658530D01*
X26521428Y17658530D02*
X26349999Y17734720D01*
X26349999Y17734720D02*
X26235713Y17734720D01*
X26235713Y17734720D02*
X26064285Y17658530D01*
X26064285Y17658530D02*
X26007142Y17582339D01*
X25549999Y16591863D02*
X24978571Y16591863D01*
X25664285Y16134720D02*
X25264285Y17734720D01*
X25264285Y17734720D02*
X24864285Y16134720D01*
X24064285Y16972815D02*
X23892857Y16896625D01*
X23892857Y16896625D02*
X23835714Y16820434D01*
X23835714Y16820434D02*
X23778571Y16668053D01*
X23778571Y16668053D02*
X23778571Y16439482D01*
X23778571Y16439482D02*
X23835714Y16287101D01*
X23835714Y16287101D02*
X23892857Y16210910D01*
X23892857Y16210910D02*
X24007142Y16134720D01*
X24007142Y16134720D02*
X24464285Y16134720D01*
X24464285Y16134720D02*
X24464285Y17734720D01*
X24464285Y17734720D02*
X24064285Y17734720D01*
X24064285Y17734720D02*
X23950000Y17658530D01*
X23950000Y17658530D02*
X23892857Y17582339D01*
X23892857Y17582339D02*
X23835714Y17429958D01*
X23835714Y17429958D02*
X23835714Y17277577D01*
X23835714Y17277577D02*
X23892857Y17125196D01*
X23892857Y17125196D02*
X23950000Y17049006D01*
X23950000Y17049006D02*
X24064285Y16972815D01*
X24064285Y16972815D02*
X24464285Y16972815D01*
X22692857Y16134720D02*
X23264285Y16134720D01*
X23264285Y16134720D02*
X23264285Y17734720D01*
X22292856Y16972815D02*
X21892856Y16972815D01*
X21721428Y16134720D02*
X22292856Y16134720D01*
X22292856Y16134720D02*
X22292856Y17734720D01*
X22292856Y17734720D02*
X21721428Y17734720D01*
X20349999Y16591863D02*
X19778571Y16591863D01*
X20464285Y16134720D02*
X20064285Y17734720D01*
X20064285Y17734720D02*
X19664285Y16134720D01*
X19264285Y16134720D02*
X19264285Y17734720D01*
X19264285Y17734720D02*
X18978571Y17734720D01*
X18978571Y17734720D02*
X18807142Y17658530D01*
X18807142Y17658530D02*
X18692857Y17506149D01*
X18692857Y17506149D02*
X18635714Y17353768D01*
X18635714Y17353768D02*
X18578571Y17049006D01*
X18578571Y17049006D02*
X18578571Y16820434D01*
X18578571Y16820434D02*
X18635714Y16515672D01*
X18635714Y16515672D02*
X18692857Y16363291D01*
X18692857Y16363291D02*
X18807142Y16210910D01*
X18807142Y16210910D02*
X18978571Y16134720D01*
X18978571Y16134720D02*
X19264285Y16134720D01*
X18121428Y16591863D02*
X17550000Y16591863D01*
X18235714Y16134720D02*
X17835714Y17734720D01*
X17835714Y17734720D02*
X17435714Y16134720D01*
X17035714Y16134720D02*
X17035714Y17734720D01*
X17035714Y17734720D02*
X16578571Y17734720D01*
X16578571Y17734720D02*
X16464286Y17658530D01*
X16464286Y17658530D02*
X16407143Y17582339D01*
X16407143Y17582339D02*
X16350000Y17429958D01*
X16350000Y17429958D02*
X16350000Y17201387D01*
X16350000Y17201387D02*
X16407143Y17049006D01*
X16407143Y17049006D02*
X16464286Y16972815D01*
X16464286Y16972815D02*
X16578571Y16896625D01*
X16578571Y16896625D02*
X17035714Y16896625D01*
X16007143Y17734720D02*
X15321429Y17734720D01*
X15664286Y16134720D02*
X15664286Y17734720D01*
X14921428Y16972815D02*
X14521428Y16972815D01*
X14350000Y16134720D02*
X14921428Y16134720D01*
X14921428Y16134720D02*
X14921428Y17734720D01*
X14921428Y17734720D02*
X14350000Y17734720D01*
X13150000Y16134720D02*
X13550000Y16896625D01*
X13835714Y16134720D02*
X13835714Y17734720D01*
X13835714Y17734720D02*
X13378571Y17734720D01*
X13378571Y17734720D02*
X13264286Y17658530D01*
X13264286Y17658530D02*
X13207143Y17582339D01*
X13207143Y17582339D02*
X13150000Y17429958D01*
X13150000Y17429958D02*
X13150000Y17201387D01*
X13150000Y17201387D02*
X13207143Y17049006D01*
X13207143Y17049006D02*
X13264286Y16972815D01*
X13264286Y16972815D02*
X13378571Y16896625D01*
X13378571Y16896625D02*
X13835714Y16896625D01*
X28578571Y14396905D02*
X28978571Y14396905D01*
X28978571Y13558810D02*
X28978571Y15158810D01*
X28978571Y15158810D02*
X28407143Y15158810D01*
X27721429Y15158810D02*
X27492857Y15158810D01*
X27492857Y15158810D02*
X27378572Y15082620D01*
X27378572Y15082620D02*
X27264286Y14930239D01*
X27264286Y14930239D02*
X27207143Y14625477D01*
X27207143Y14625477D02*
X27207143Y14092143D01*
X27207143Y14092143D02*
X27264286Y13787381D01*
X27264286Y13787381D02*
X27378572Y13635000D01*
X27378572Y13635000D02*
X27492857Y13558810D01*
X27492857Y13558810D02*
X27721429Y13558810D01*
X27721429Y13558810D02*
X27835715Y13635000D01*
X27835715Y13635000D02*
X27950000Y13787381D01*
X27950000Y13787381D02*
X28007143Y14092143D01*
X28007143Y14092143D02*
X28007143Y14625477D01*
X28007143Y14625477D02*
X27950000Y14930239D01*
X27950000Y14930239D02*
X27835715Y15082620D01*
X27835715Y15082620D02*
X27721429Y15158810D01*
X26007143Y13558810D02*
X26407143Y14320715D01*
X26692857Y13558810D02*
X26692857Y15158810D01*
X26692857Y15158810D02*
X26235714Y15158810D01*
X26235714Y15158810D02*
X26121429Y15082620D01*
X26121429Y15082620D02*
X26064286Y15006429D01*
X26064286Y15006429D02*
X26007143Y14854048D01*
X26007143Y14854048D02*
X26007143Y14625477D01*
X26007143Y14625477D02*
X26064286Y14473096D01*
X26064286Y14473096D02*
X26121429Y14396905D01*
X26121429Y14396905D02*
X26235714Y14320715D01*
X26235714Y14320715D02*
X26692857Y14320715D01*
X24635714Y13635000D02*
X24464286Y13558810D01*
X24464286Y13558810D02*
X24178571Y13558810D01*
X24178571Y13558810D02*
X24064286Y13635000D01*
X24064286Y13635000D02*
X24007143Y13711191D01*
X24007143Y13711191D02*
X23950000Y13863572D01*
X23950000Y13863572D02*
X23950000Y14015953D01*
X23950000Y14015953D02*
X24007143Y14168334D01*
X24007143Y14168334D02*
X24064286Y14244524D01*
X24064286Y14244524D02*
X24178571Y14320715D01*
X24178571Y14320715D02*
X24407143Y14396905D01*
X24407143Y14396905D02*
X24521428Y14473096D01*
X24521428Y14473096D02*
X24578571Y14549286D01*
X24578571Y14549286D02*
X24635714Y14701667D01*
X24635714Y14701667D02*
X24635714Y14854048D01*
X24635714Y14854048D02*
X24578571Y15006429D01*
X24578571Y15006429D02*
X24521428Y15082620D01*
X24521428Y15082620D02*
X24407143Y15158810D01*
X24407143Y15158810D02*
X24121428Y15158810D01*
X24121428Y15158810D02*
X23950000Y15082620D01*
X23435714Y14396905D02*
X23035714Y14396905D01*
X22864286Y13558810D02*
X23435714Y13558810D01*
X23435714Y13558810D02*
X23435714Y15158810D01*
X23435714Y15158810D02*
X22864286Y15158810D01*
X21721429Y15082620D02*
X21835715Y15158810D01*
X21835715Y15158810D02*
X22007143Y15158810D01*
X22007143Y15158810D02*
X22178572Y15082620D01*
X22178572Y15082620D02*
X22292857Y14930239D01*
X22292857Y14930239D02*
X22350000Y14777858D01*
X22350000Y14777858D02*
X22407143Y14473096D01*
X22407143Y14473096D02*
X22407143Y14244524D01*
X22407143Y14244524D02*
X22350000Y13939762D01*
X22350000Y13939762D02*
X22292857Y13787381D01*
X22292857Y13787381D02*
X22178572Y13635000D01*
X22178572Y13635000D02*
X22007143Y13558810D01*
X22007143Y13558810D02*
X21892857Y13558810D01*
X21892857Y13558810D02*
X21721429Y13635000D01*
X21721429Y13635000D02*
X21664286Y13711191D01*
X21664286Y13711191D02*
X21664286Y14244524D01*
X21664286Y14244524D02*
X21892857Y14244524D01*
X20521429Y15082620D02*
X20635715Y15158810D01*
X20635715Y15158810D02*
X20807143Y15158810D01*
X20807143Y15158810D02*
X20978572Y15082620D01*
X20978572Y15082620D02*
X21092857Y14930239D01*
X21092857Y14930239D02*
X21150000Y14777858D01*
X21150000Y14777858D02*
X21207143Y14473096D01*
X21207143Y14473096D02*
X21207143Y14244524D01*
X21207143Y14244524D02*
X21150000Y13939762D01*
X21150000Y13939762D02*
X21092857Y13787381D01*
X21092857Y13787381D02*
X20978572Y13635000D01*
X20978572Y13635000D02*
X20807143Y13558810D01*
X20807143Y13558810D02*
X20692857Y13558810D01*
X20692857Y13558810D02*
X20521429Y13635000D01*
X20521429Y13635000D02*
X20464286Y13711191D01*
X20464286Y13711191D02*
X20464286Y14244524D01*
X20464286Y14244524D02*
X20692857Y14244524D01*
X19950000Y14396905D02*
X19550000Y14396905D01*
X19378572Y13558810D02*
X19950000Y13558810D01*
X19950000Y13558810D02*
X19950000Y15158810D01*
X19950000Y15158810D02*
X19378572Y15158810D01*
X18178572Y13558810D02*
X18578572Y14320715D01*
X18864286Y13558810D02*
X18864286Y15158810D01*
X18864286Y15158810D02*
X18407143Y15158810D01*
X18407143Y15158810D02*
X18292858Y15082620D01*
X18292858Y15082620D02*
X18235715Y15006429D01*
X18235715Y15006429D02*
X18178572Y14854048D01*
X18178572Y14854048D02*
X18178572Y14625477D01*
X18178572Y14625477D02*
X18235715Y14473096D01*
X18235715Y14473096D02*
X18292858Y14396905D01*
X18292858Y14396905D02*
X18407143Y14320715D01*
X18407143Y14320715D02*
X18864286Y14320715D01*
X16407143Y15158810D02*
X16407143Y14015953D01*
X16407143Y14015953D02*
X16464286Y13787381D01*
X16464286Y13787381D02*
X16578572Y13635000D01*
X16578572Y13635000D02*
X16750000Y13558810D01*
X16750000Y13558810D02*
X16864286Y13558810D01*
X15835714Y14168334D02*
X14921429Y14168334D01*
X13778572Y13558810D02*
X14350000Y13558810D01*
X14350000Y13558810D02*
X14350000Y15158810D01*
X13378571Y13558810D02*
X13378571Y15158810D01*
X12807142Y13558810D02*
X12807142Y15158810D01*
X12807142Y15158810D02*
X12121428Y13558810D01*
X12121428Y13558810D02*
X12121428Y15158810D01*
X11549999Y13558810D02*
X11549999Y15158810D01*
X10864285Y13558810D02*
X11378571Y14473096D01*
X10864285Y15158810D02*
X11549999Y14244524D01*
M02*
