%TF.GenerationSoftware,KiCad,Pcbnew,8.0.8*%
%TF.CreationDate,2025-02-20T14:02:33+09:00*%
%TF.ProjectId,CABLE-ADAPTER-SEGGER,4341424c-452d-4414-9441-505445522d53,rev?*%
%TF.SameCoordinates,PX3938700PY42c1d80*%
%TF.FileFunction,Copper,L2,Bot*%
%TF.FilePolarity,Positive*%
%FSLAX46Y46*%
G04 Gerber Fmt 4.6, Leading zero omitted, Abs format (unit mm)*
G04 Created by KiCad (PCBNEW 8.0.8) date 2025-02-20 14:02:33*
%MOMM*%
%LPD*%
G01*
G04 APERTURE LIST*
%TA.AperFunction,ComponentPad*%
%ADD10R,1.600000X1.600000*%
%TD*%
%TA.AperFunction,ComponentPad*%
%ADD11C,1.500000*%
%TD*%
%TA.AperFunction,ComponentPad*%
%ADD12C,1.600000*%
%TD*%
%TA.AperFunction,ComponentPad*%
%ADD13R,1.500000X1.500000*%
%TD*%
%TA.AperFunction,ViaPad*%
%ADD14C,0.600000*%
%TD*%
%TA.AperFunction,Conductor*%
%ADD15C,0.200000*%
%TD*%
G04 APERTURE END LIST*
D10*
%TO.P,CN3,1,1*%
%TO.N,/VTref*%
X17080000Y7270000D03*
D11*
%TO.P,CN3,2,2*%
%TO.N,/SWDIO*%
X17080000Y4730000D03*
D12*
%TO.P,CN3,3,3*%
%TO.N,GND*%
X14540000Y7270000D03*
D11*
%TO.P,CN3,4,4*%
%TO.N,/SWCLK*%
X14540000Y4730000D03*
D12*
%TO.P,CN3,5,5*%
%TO.N,/VPOWER*%
X12000000Y7270000D03*
D11*
%TO.P,CN3,6,6*%
%TO.N,/SWO*%
X12000000Y4730000D03*
D12*
%TO.P,CN3,7,7*%
%TO.N,/RTCK*%
X9460000Y7270000D03*
D11*
%TO.P,CN3,8,8*%
%TO.N,/TDI*%
X9460000Y4730000D03*
D12*
%TO.P,CN3,9,9*%
%TO.N,/TRST*%
X6920000Y7270000D03*
D11*
%TO.P,CN3,10,10*%
%TO.N,/RESET*%
X6920000Y4730000D03*
%TD*%
D13*
%TO.P,CN1,1,1*%
%TO.N,/VTref*%
X31430000Y24270000D03*
D11*
%TO.P,CN1,2,2*%
%TO.N,unconnected-(CN1-Pad2)*%
X31430000Y21730000D03*
%TO.P,CN1,3,3*%
%TO.N,/TRST*%
X28890000Y24270000D03*
%TO.P,CN1,4,4*%
%TO.N,GND*%
X28890000Y21730000D03*
%TO.P,CN1,5,5*%
%TO.N,/TDI*%
X26350000Y24270000D03*
%TO.P,CN1,6,6*%
%TO.N,GND*%
X26350000Y21730000D03*
%TO.P,CN1,7,7*%
%TO.N,/SWDIO*%
X23810000Y24270000D03*
%TO.P,CN1,8,8*%
%TO.N,GND*%
X23810000Y21730000D03*
%TO.P,CN1,9,9*%
%TO.N,/SWCLK*%
X21270000Y24270000D03*
%TO.P,CN1,10,10*%
%TO.N,GND*%
X21270000Y21730000D03*
%TO.P,CN1,11,11*%
%TO.N,/RTCK*%
X18730000Y24270000D03*
%TO.P,CN1,12,12*%
%TO.N,GND*%
X18730000Y21730000D03*
%TO.P,CN1,13,13*%
%TO.N,/SWO*%
X16190000Y24270000D03*
%TO.P,CN1,14,14*%
%TO.N,GND*%
X16190000Y21730000D03*
%TO.P,CN1,15,15*%
%TO.N,/RESET*%
X13650000Y24270000D03*
%TO.P,CN1,16,16*%
%TO.N,GND*%
X13650000Y21730000D03*
%TO.P,CN1,17,17*%
%TO.N,unconnected-(CN1-Pad17)*%
X11110000Y24270000D03*
%TO.P,CN1,18,18*%
%TO.N,GND*%
X11110000Y21730000D03*
%TO.P,CN1,19,19*%
%TO.N,/VPOWER*%
X8570000Y24270000D03*
%TO.P,CN1,20,20*%
%TO.N,GND*%
X8570000Y21730000D03*
%TD*%
D14*
%TO.N,/SWDIO*%
X34540000Y2000000D03*
%TO.N,/SWCLK*%
X33270000Y2000000D03*
%TO.N,/RESET*%
X29460000Y2000000D03*
%TO.N,/SWO*%
X32000000Y2000000D03*
%TO.N,/VTref*%
X34600000Y12400000D03*
%TO.N,/TDI*%
X30730000Y2000000D03*
%TD*%
D15*
%TO.N,/SWDIO*%
X32690000Y3850000D02*
X34540000Y2000000D01*
X23810000Y24270000D02*
X22590000Y23050000D01*
X18450000Y18900000D02*
X18450000Y6100000D01*
X20200000Y22300000D02*
X20200000Y20650000D01*
X22590000Y23050000D02*
X20950000Y23050000D01*
X18450000Y6100000D02*
X17080000Y4730000D01*
X17960000Y3850000D02*
X32690000Y3850000D01*
X20950000Y23050000D02*
X20200000Y22300000D01*
X20200000Y20650000D02*
X18450000Y18900000D01*
X17080000Y4730000D02*
X17960000Y3850000D01*
%TO.N,/SWCLK*%
X15420000Y4730000D02*
X16700000Y3450000D01*
X18050000Y19150000D02*
X18050000Y10500000D01*
X15750000Y5940000D02*
X14540000Y4730000D01*
X31820000Y3450000D02*
X33270000Y2000000D01*
X14540000Y4730000D02*
X15420000Y4730000D01*
X15750000Y8200000D02*
X15750000Y5940000D01*
X21270000Y24270000D02*
X19800000Y22800000D01*
X18050000Y10500000D02*
X15750000Y8200000D01*
X16700000Y3450000D02*
X31820000Y3450000D01*
X19800000Y20900000D02*
X18050000Y19150000D01*
X19800000Y22800000D02*
X19800000Y20900000D01*
%TO.N,/RESET*%
X7150000Y9400000D02*
X8150000Y8400000D01*
X29210000Y2250000D02*
X16050000Y2250000D01*
X16050000Y2250000D02*
X15600000Y2700000D01*
X15600000Y2700000D02*
X13750000Y2700000D01*
X10875000Y3550000D02*
X8100000Y3550000D01*
X11275000Y3150000D02*
X10875000Y3550000D01*
X13300000Y3150000D02*
X11275000Y3150000D01*
X8150000Y5960000D02*
X6920000Y4730000D01*
X13650000Y24270000D02*
X12430000Y23050000D01*
X8100000Y3550000D02*
X6920000Y4730000D01*
X8150000Y8400000D02*
X8150000Y5960000D01*
X7150000Y22100000D02*
X7150000Y9400000D01*
X13750000Y2700000D02*
X13300000Y3150000D01*
X8100000Y23050000D02*
X7150000Y22100000D01*
X29460000Y2000000D02*
X29210000Y2250000D01*
X12430000Y23050000D02*
X8100000Y23050000D01*
%TO.N,/SWO*%
X17450000Y23010000D02*
X17450000Y20800000D01*
X13000000Y4730000D02*
X14130000Y3600000D01*
X16190000Y24270000D02*
X17450000Y23010000D01*
X30950000Y3050000D02*
X32000000Y2000000D01*
X13200000Y7650000D02*
X13200000Y5930000D01*
X13200000Y5930000D02*
X12000000Y4730000D01*
X15500000Y8550000D02*
X14100000Y8550000D01*
X17650000Y10700000D02*
X15500000Y8550000D01*
X14100000Y8550000D02*
X13200000Y7650000D01*
X17650000Y20600000D02*
X17650000Y10700000D01*
X12000000Y4730000D02*
X13000000Y4730000D01*
X15900000Y3600000D02*
X16450000Y3050000D01*
X14130000Y3600000D02*
X15900000Y3600000D01*
X16450000Y3050000D02*
X30950000Y3050000D01*
X17450000Y20800000D02*
X17650000Y20600000D01*
%TO.N,/VTref*%
X34600000Y22950000D02*
X33280000Y24270000D01*
X34600000Y12400000D02*
X34600000Y22950000D01*
X33280000Y24270000D02*
X31430000Y24270000D01*
%TO.N,/TDI*%
X9460000Y4730000D02*
X10370000Y4730000D01*
X13450000Y3600000D02*
X13900000Y3150000D01*
X10370000Y4730000D02*
X11500000Y3600000D01*
X30080000Y2650000D02*
X30730000Y2000000D01*
X13900000Y3150000D02*
X15750000Y3150000D01*
X15750000Y3150000D02*
X16250000Y2650000D01*
X16250000Y2650000D02*
X30080000Y2650000D01*
X11500000Y3600000D02*
X13450000Y3600000D01*
%TO.N,/TRST*%
X6920000Y8980000D02*
X6650000Y9250000D01*
X28890000Y25360000D02*
X28890000Y24270000D01*
X7750000Y25750000D02*
X28500000Y25750000D01*
X6650000Y24650000D02*
X7750000Y25750000D01*
X6920000Y7270000D02*
X6920000Y8980000D01*
X6650000Y9250000D02*
X6650000Y24650000D01*
X28500000Y25750000D02*
X28890000Y25360000D01*
%TD*%
%TA.AperFunction,Conductor*%
%TO.N,GND*%
G36*
X15790000Y21677339D02*
G01*
X15817259Y21575606D01*
X15869920Y21484394D01*
X15944394Y21409920D01*
X16035606Y21357259D01*
X16137339Y21330000D01*
X16143552Y21330000D01*
X15500427Y20686876D01*
X15562612Y20643334D01*
X15760840Y20550899D01*
X15760849Y20550895D01*
X15972105Y20494290D01*
X15972115Y20494288D01*
X16189999Y20475225D01*
X16190001Y20475225D01*
X16407884Y20494288D01*
X16407894Y20494290D01*
X16619150Y20550895D01*
X16619159Y20550899D01*
X16737781Y20606212D01*
X16806859Y20616704D01*
X16870643Y20588184D01*
X16897572Y20555832D01*
X16917716Y20520942D01*
X16962977Y20442547D01*
X16969481Y20431283D01*
X17013181Y20387583D01*
X17046666Y20326260D01*
X17049500Y20299902D01*
X17049500Y11000097D01*
X17029815Y10933058D01*
X17013181Y10912416D01*
X15287584Y9186819D01*
X15226261Y9153334D01*
X15199903Y9150500D01*
X14179057Y9150500D01*
X14020942Y9150500D01*
X13868215Y9109577D01*
X13868214Y9109577D01*
X13868212Y9109576D01*
X13868209Y9109575D01*
X13818096Y9080641D01*
X13818095Y9080640D01*
X13774689Y9055580D01*
X13731285Y9030521D01*
X13731282Y9030519D01*
X13619478Y8918714D01*
X12990157Y8289394D01*
X12928834Y8255909D01*
X12859142Y8260893D01*
X12831354Y8275499D01*
X12653375Y8400119D01*
X12652734Y8400568D01*
X12652732Y8400569D01*
X12446497Y8496739D01*
X12446488Y8496742D01*
X12226697Y8555634D01*
X12226693Y8555635D01*
X12226692Y8555635D01*
X12226691Y8555636D01*
X12226686Y8555636D01*
X12000002Y8575468D01*
X11999998Y8575468D01*
X11773313Y8555636D01*
X11773302Y8555634D01*
X11553511Y8496742D01*
X11553502Y8496739D01*
X11347267Y8400569D01*
X11347265Y8400568D01*
X11160858Y8270046D01*
X10999954Y8109142D01*
X10869432Y7922735D01*
X10869431Y7922733D01*
X10842382Y7864725D01*
X10796209Y7812286D01*
X10729016Y7793134D01*
X10662135Y7813350D01*
X10617618Y7864725D01*
X10590568Y7922733D01*
X10590567Y7922735D01*
X10460045Y8109142D01*
X10299141Y8270046D01*
X10112734Y8400568D01*
X10112732Y8400569D01*
X9906497Y8496739D01*
X9906488Y8496742D01*
X9686697Y8555634D01*
X9686693Y8555635D01*
X9686692Y8555635D01*
X9686691Y8555636D01*
X9686686Y8555636D01*
X9460002Y8575468D01*
X9459998Y8575468D01*
X9233313Y8555636D01*
X9233302Y8555634D01*
X9013511Y8496742D01*
X9013497Y8496737D01*
X8909431Y8448210D01*
X8840354Y8437718D01*
X8776570Y8466238D01*
X8738331Y8524715D01*
X8737268Y8528439D01*
X8709577Y8631784D01*
X8703108Y8642989D01*
X8630524Y8768710D01*
X8630518Y8768718D01*
X7786819Y9612417D01*
X7753334Y9673740D01*
X7750500Y9700098D01*
X7750500Y20539650D01*
X7770185Y20606689D01*
X7822989Y20652444D01*
X7892147Y20662388D01*
X7937085Y20644597D01*
X7937920Y20646042D01*
X7942611Y20643334D01*
X8140840Y20550899D01*
X8140849Y20550895D01*
X8352105Y20494290D01*
X8352115Y20494288D01*
X8569999Y20475225D01*
X8570001Y20475225D01*
X8787884Y20494288D01*
X8787894Y20494290D01*
X8999150Y20550895D01*
X8999164Y20550900D01*
X9197383Y20643331D01*
X9197385Y20643332D01*
X9259570Y20686876D01*
X8616446Y21330000D01*
X8622661Y21330000D01*
X8724394Y21357259D01*
X8815606Y21409920D01*
X8890080Y21484394D01*
X8942741Y21575606D01*
X8970000Y21677339D01*
X8970000Y21683554D01*
X9613124Y21040430D01*
X9656668Y21102615D01*
X9656669Y21102617D01*
X9727618Y21254767D01*
X9773790Y21307207D01*
X9840983Y21326359D01*
X9907865Y21306144D01*
X9952382Y21254768D01*
X10023333Y21102613D01*
X10066874Y21040429D01*
X10710000Y21683555D01*
X10710000Y21677339D01*
X10737259Y21575606D01*
X10789920Y21484394D01*
X10864394Y21409920D01*
X10955606Y21357259D01*
X11057339Y21330000D01*
X11063553Y21330000D01*
X10420427Y20686876D01*
X10482612Y20643334D01*
X10680840Y20550899D01*
X10680849Y20550895D01*
X10892105Y20494290D01*
X10892115Y20494288D01*
X11109999Y20475225D01*
X11110001Y20475225D01*
X11327884Y20494288D01*
X11327894Y20494290D01*
X11539150Y20550895D01*
X11539164Y20550900D01*
X11737383Y20643331D01*
X11737385Y20643332D01*
X11799570Y20686876D01*
X11156448Y21330000D01*
X11162661Y21330000D01*
X11264394Y21357259D01*
X11355606Y21409920D01*
X11430080Y21484394D01*
X11482741Y21575606D01*
X11510000Y21677339D01*
X11510000Y21683554D01*
X12153124Y21040430D01*
X12196668Y21102615D01*
X12196669Y21102617D01*
X12267618Y21254767D01*
X12313790Y21307207D01*
X12380983Y21326359D01*
X12447865Y21306144D01*
X12492382Y21254768D01*
X12563333Y21102613D01*
X12606874Y21040429D01*
X13250000Y21683555D01*
X13250000Y21677339D01*
X13277259Y21575606D01*
X13329920Y21484394D01*
X13404394Y21409920D01*
X13495606Y21357259D01*
X13597339Y21330000D01*
X13603553Y21330000D01*
X12960427Y20686876D01*
X13022612Y20643334D01*
X13220840Y20550899D01*
X13220849Y20550895D01*
X13432105Y20494290D01*
X13432115Y20494288D01*
X13649999Y20475225D01*
X13650001Y20475225D01*
X13867884Y20494288D01*
X13867894Y20494290D01*
X14079150Y20550895D01*
X14079164Y20550900D01*
X14277383Y20643331D01*
X14277385Y20643332D01*
X14339571Y20686876D01*
X13696448Y21330000D01*
X13702661Y21330000D01*
X13804394Y21357259D01*
X13895606Y21409920D01*
X13970080Y21484394D01*
X14022741Y21575606D01*
X14050000Y21677339D01*
X14050000Y21683554D01*
X14693124Y21040430D01*
X14736668Y21102615D01*
X14736669Y21102617D01*
X14807618Y21254767D01*
X14853790Y21307207D01*
X14920983Y21326359D01*
X14987865Y21306144D01*
X15032382Y21254768D01*
X15103333Y21102613D01*
X15146874Y21040429D01*
X15790000Y21683555D01*
X15790000Y21677339D01*
G37*
%TD.AperFunction*%
%TA.AperFunction,Conductor*%
G36*
X14987865Y23844959D02*
G01*
X15032381Y23793586D01*
X15102898Y23642361D01*
X15228402Y23463123D01*
X15383123Y23308402D01*
X15562360Y23182899D01*
X15562361Y23182898D01*
X15714175Y23112106D01*
X15766614Y23065934D01*
X15785766Y22998740D01*
X15765550Y22931859D01*
X15714175Y22887342D01*
X15562614Y22816668D01*
X15562612Y22816667D01*
X15500428Y22773125D01*
X15500427Y22773125D01*
X16143553Y22130000D01*
X16137339Y22130000D01*
X16035606Y22102741D01*
X15944394Y22050080D01*
X15869920Y21975606D01*
X15817259Y21884394D01*
X15790000Y21782661D01*
X15790000Y21776448D01*
X15146875Y22419573D01*
X15146875Y22419572D01*
X15103333Y22357388D01*
X15103332Y22357386D01*
X15032382Y22205233D01*
X14986209Y22152794D01*
X14919016Y22133642D01*
X14852135Y22153858D01*
X14807618Y22205233D01*
X14736668Y22357385D01*
X14693123Y22419572D01*
X14050000Y21776449D01*
X14050000Y21782661D01*
X14022741Y21884394D01*
X13970080Y21975606D01*
X13895606Y22050080D01*
X13804394Y22102741D01*
X13702661Y22130000D01*
X13696445Y22130000D01*
X14339571Y22773126D01*
X14277387Y22816667D01*
X14125824Y22887342D01*
X14073385Y22933514D01*
X14054233Y23000708D01*
X14074449Y23067589D01*
X14125822Y23112105D01*
X14277639Y23182898D01*
X14456877Y23308402D01*
X14611598Y23463123D01*
X14737102Y23642361D01*
X14807618Y23793586D01*
X14853790Y23846023D01*
X14920984Y23865175D01*
X14987865Y23844959D01*
G37*
%TD.AperFunction*%
%TA.AperFunction,Conductor*%
G36*
X25147865Y23844959D02*
G01*
X25192381Y23793586D01*
X25262898Y23642361D01*
X25388402Y23463123D01*
X25543123Y23308402D01*
X25722360Y23182899D01*
X25722361Y23182898D01*
X25874175Y23112106D01*
X25926614Y23065934D01*
X25945766Y22998740D01*
X25925550Y22931859D01*
X25874175Y22887342D01*
X25722614Y22816668D01*
X25722612Y22816667D01*
X25660428Y22773125D01*
X25660427Y22773125D01*
X26303554Y22130000D01*
X26297339Y22130000D01*
X26195606Y22102741D01*
X26104394Y22050080D01*
X26029920Y21975606D01*
X25977259Y21884394D01*
X25950000Y21782661D01*
X25950000Y21776448D01*
X25306875Y22419573D01*
X25306875Y22419572D01*
X25263333Y22357388D01*
X25263332Y22357386D01*
X25192382Y22205233D01*
X25146209Y22152794D01*
X25079016Y22133642D01*
X25012135Y22153858D01*
X24967618Y22205233D01*
X24896668Y22357385D01*
X24853123Y22419572D01*
X24210000Y21776449D01*
X24210000Y21782661D01*
X24182741Y21884394D01*
X24130080Y21975606D01*
X24055606Y22050080D01*
X23964394Y22102741D01*
X23862661Y22130000D01*
X23856445Y22130000D01*
X24499571Y22773126D01*
X24437387Y22816667D01*
X24285824Y22887342D01*
X24233385Y22933514D01*
X24214233Y23000708D01*
X24234449Y23067589D01*
X24285822Y23112105D01*
X24437639Y23182898D01*
X24616877Y23308402D01*
X24771598Y23463123D01*
X24897102Y23642361D01*
X24967618Y23793586D01*
X25013790Y23846023D01*
X25080984Y23865175D01*
X25147865Y23844959D01*
G37*
%TD.AperFunction*%
%TA.AperFunction,Conductor*%
G36*
X27687865Y23844959D02*
G01*
X27732381Y23793586D01*
X27802898Y23642361D01*
X27928402Y23463123D01*
X28083123Y23308402D01*
X28262360Y23182899D01*
X28262361Y23182898D01*
X28414175Y23112106D01*
X28466614Y23065934D01*
X28485766Y22998740D01*
X28465550Y22931859D01*
X28414175Y22887342D01*
X28262614Y22816668D01*
X28262612Y22816667D01*
X28200428Y22773125D01*
X28200427Y22773125D01*
X28843554Y22130000D01*
X28837339Y22130000D01*
X28735606Y22102741D01*
X28644394Y22050080D01*
X28569920Y21975606D01*
X28517259Y21884394D01*
X28490000Y21782661D01*
X28490000Y21776448D01*
X27846875Y22419573D01*
X27846875Y22419572D01*
X27803333Y22357388D01*
X27803332Y22357386D01*
X27732382Y22205233D01*
X27686209Y22152794D01*
X27619016Y22133642D01*
X27552135Y22153858D01*
X27507618Y22205233D01*
X27436668Y22357385D01*
X27393123Y22419572D01*
X26750000Y21776449D01*
X26750000Y21782661D01*
X26722741Y21884394D01*
X26670080Y21975606D01*
X26595606Y22050080D01*
X26504394Y22102741D01*
X26402661Y22130000D01*
X26396447Y22130000D01*
X27039571Y22773126D01*
X26977387Y22816667D01*
X26825824Y22887342D01*
X26773385Y22933514D01*
X26754233Y23000708D01*
X26774449Y23067589D01*
X26825822Y23112105D01*
X26977639Y23182898D01*
X27156877Y23308402D01*
X27311598Y23463123D01*
X27437102Y23642361D01*
X27507618Y23793586D01*
X27553790Y23846023D01*
X27620984Y23865175D01*
X27687865Y23844959D01*
G37*
%TD.AperFunction*%
%TA.AperFunction,Conductor*%
G36*
X30140355Y23628559D02*
G01*
X30175769Y23568330D01*
X30179500Y23538142D01*
X30179500Y23472131D01*
X30179501Y23472124D01*
X30185908Y23412517D01*
X30236202Y23277672D01*
X30236206Y23277665D01*
X30322452Y23162456D01*
X30322455Y23162453D01*
X30437664Y23076207D01*
X30437671Y23076203D01*
X30572517Y23025909D01*
X30572516Y23025909D01*
X30579444Y23025165D01*
X30632127Y23019500D01*
X30698139Y23019501D01*
X30765176Y22999817D01*
X30810932Y22947014D01*
X30820876Y22877856D01*
X30791852Y22814300D01*
X30769262Y22793926D01*
X30623118Y22691595D01*
X30468402Y22536879D01*
X30342900Y22357643D01*
X30342900Y22357642D01*
X30342898Y22357639D01*
X30342898Y22357638D01*
X30342780Y22357385D01*
X30272105Y22205824D01*
X30225932Y22153385D01*
X30158738Y22134234D01*
X30091857Y22154450D01*
X30047341Y22205826D01*
X29976669Y22357383D01*
X29933123Y22419572D01*
X29290000Y21776449D01*
X29290000Y21782661D01*
X29262741Y21884394D01*
X29210080Y21975606D01*
X29135606Y22050080D01*
X29044394Y22102741D01*
X28942661Y22130000D01*
X28936447Y22130000D01*
X29579571Y22773126D01*
X29517387Y22816667D01*
X29365824Y22887342D01*
X29313385Y22933514D01*
X29294233Y23000708D01*
X29314449Y23067589D01*
X29365822Y23112105D01*
X29517639Y23182898D01*
X29696877Y23308402D01*
X29851598Y23463123D01*
X29953928Y23609266D01*
X30008502Y23652888D01*
X30078000Y23660082D01*
X30140355Y23628559D01*
G37*
%TD.AperFunction*%
%TA.AperFunction,Conductor*%
G36*
X39442539Y29479815D02*
G01*
X39488294Y29427011D01*
X39499500Y29375500D01*
X39499500Y624500D01*
X39479815Y557461D01*
X39427011Y511706D01*
X39375500Y500500D01*
X624500Y500500D01*
X557461Y520185D01*
X511706Y572989D01*
X500500Y624500D01*
X500500Y7270002D01*
X5614532Y7270002D01*
X5614532Y7269999D01*
X5634364Y7043314D01*
X5634366Y7043303D01*
X5693258Y6823512D01*
X5693261Y6823503D01*
X5789431Y6617268D01*
X5789432Y6617266D01*
X5919954Y6430859D01*
X6080858Y6269955D01*
X6080861Y6269953D01*
X6267266Y6139432D01*
X6384429Y6084798D01*
X6436868Y6038626D01*
X6456020Y5971432D01*
X6435804Y5904551D01*
X6384429Y5860034D01*
X6292362Y5817102D01*
X6292357Y5817100D01*
X6113121Y5691598D01*
X5958402Y5536879D01*
X5832900Y5357643D01*
X5832898Y5357639D01*
X5740426Y5159332D01*
X5740422Y5159323D01*
X5683793Y4947980D01*
X5683793Y4947976D01*
X5664723Y4730003D01*
X5664723Y4729998D01*
X5683793Y4512025D01*
X5683793Y4512021D01*
X5740422Y4300678D01*
X5740424Y4300674D01*
X5740425Y4300670D01*
X5778641Y4218716D01*
X5832897Y4102362D01*
X5832898Y4102361D01*
X5958402Y3923123D01*
X6113123Y3768402D01*
X6292361Y3642898D01*
X6490670Y3550425D01*
X6702023Y3493793D01*
X6872450Y3478883D01*
X6919998Y3474723D01*
X6920000Y3474723D01*
X6920002Y3474723D01*
X6948254Y3477195D01*
X7137977Y3493793D01*
X7202108Y3510977D01*
X7271957Y3509314D01*
X7321882Y3478883D01*
X7615139Y3185626D01*
X7615149Y3185615D01*
X7619479Y3181285D01*
X7619480Y3181284D01*
X7731284Y3069480D01*
X7731286Y3069479D01*
X7731290Y3069476D01*
X7781610Y3040424D01*
X7781615Y3040422D01*
X7868209Y2990426D01*
X7868210Y2990425D01*
X7868212Y2990425D01*
X7868215Y2990423D01*
X8020943Y2949499D01*
X8020946Y2949499D01*
X8186653Y2949499D01*
X8186669Y2949500D01*
X10574903Y2949500D01*
X10641942Y2929815D01*
X10662584Y2913181D01*
X10790139Y2785626D01*
X10790149Y2785615D01*
X10794479Y2781285D01*
X10794480Y2781284D01*
X10906284Y2669480D01*
X10906286Y2669479D01*
X10906290Y2669476D01*
X11043209Y2590427D01*
X11043216Y2590423D01*
X11155019Y2560466D01*
X11195942Y2549500D01*
X11195943Y2549500D01*
X12999903Y2549500D01*
X13066942Y2529815D01*
X13087584Y2513181D01*
X13265139Y2335626D01*
X13265149Y2335615D01*
X13269479Y2331285D01*
X13269480Y2331284D01*
X13381284Y2219480D01*
X13381286Y2219479D01*
X13381290Y2219476D01*
X13465352Y2170943D01*
X13465353Y2170943D01*
X13518215Y2140423D01*
X13670943Y2099500D01*
X15299903Y2099500D01*
X15366942Y2079815D01*
X15387584Y2063181D01*
X15565139Y1885626D01*
X15565149Y1885615D01*
X15569479Y1881285D01*
X15569480Y1881284D01*
X15681284Y1769480D01*
X15768095Y1719361D01*
X15768097Y1719359D01*
X15806151Y1697389D01*
X15818215Y1690423D01*
X15970943Y1649500D01*
X28666293Y1649500D01*
X28733332Y1629815D01*
X28771287Y1591472D01*
X28830184Y1497738D01*
X28957738Y1370184D01*
X29110478Y1274211D01*
X29280745Y1214632D01*
X29280750Y1214631D01*
X29459996Y1194435D01*
X29460000Y1194435D01*
X29460004Y1194435D01*
X29639249Y1214631D01*
X29639252Y1214632D01*
X29639255Y1214632D01*
X29809522Y1274211D01*
X29962262Y1370184D01*
X30007319Y1415241D01*
X30068642Y1448726D01*
X30138334Y1443742D01*
X30182681Y1415241D01*
X30227738Y1370184D01*
X30380478Y1274211D01*
X30550745Y1214632D01*
X30550750Y1214631D01*
X30729996Y1194435D01*
X30730000Y1194435D01*
X30730004Y1194435D01*
X30909249Y1214631D01*
X30909252Y1214632D01*
X30909255Y1214632D01*
X31079522Y1274211D01*
X31232262Y1370184D01*
X31277319Y1415241D01*
X31338642Y1448726D01*
X31408334Y1443742D01*
X31452681Y1415241D01*
X31497738Y1370184D01*
X31650478Y1274211D01*
X31820745Y1214632D01*
X31820750Y1214631D01*
X31999996Y1194435D01*
X32000000Y1194435D01*
X32000004Y1194435D01*
X32179249Y1214631D01*
X32179252Y1214632D01*
X32179255Y1214632D01*
X32349522Y1274211D01*
X32502262Y1370184D01*
X32547319Y1415241D01*
X32608642Y1448726D01*
X32678334Y1443742D01*
X32722681Y1415241D01*
X32767738Y1370184D01*
X32920478Y1274211D01*
X33090745Y1214632D01*
X33090750Y1214631D01*
X33269996Y1194435D01*
X33270000Y1194435D01*
X33270004Y1194435D01*
X33449249Y1214631D01*
X33449252Y1214632D01*
X33449255Y1214632D01*
X33619522Y1274211D01*
X33772262Y1370184D01*
X33817319Y1415241D01*
X33878642Y1448726D01*
X33948334Y1443742D01*
X33992681Y1415241D01*
X34037738Y1370184D01*
X34190478Y1274211D01*
X34360745Y1214632D01*
X34360750Y1214631D01*
X34539996Y1194435D01*
X34540000Y1194435D01*
X34540004Y1194435D01*
X34719249Y1214631D01*
X34719252Y1214632D01*
X34719255Y1214632D01*
X34889522Y1274211D01*
X35042262Y1370184D01*
X35169816Y1497738D01*
X35265789Y1650478D01*
X35325368Y1820745D01*
X35332189Y1881284D01*
X35345565Y1999997D01*
X35345565Y2000004D01*
X35325369Y2179250D01*
X35325368Y2179255D01*
X35311293Y2219480D01*
X35265789Y2349522D01*
X35169816Y2502262D01*
X35042262Y2629816D01*
X34979137Y2669480D01*
X34889521Y2725790D01*
X34719249Y2785370D01*
X34632330Y2795163D01*
X34567916Y2822230D01*
X34558533Y2830702D01*
X33177590Y4211645D01*
X33177588Y4211648D01*
X33058717Y4330519D01*
X33058716Y4330520D01*
X32971904Y4380640D01*
X32971904Y4380641D01*
X32971900Y4380642D01*
X32921785Y4409577D01*
X32769057Y4450501D01*
X32610943Y4450501D01*
X32603347Y4450501D01*
X32603331Y4450500D01*
X18446146Y4450500D01*
X18379107Y4470185D01*
X18333352Y4522989D01*
X18322618Y4585307D01*
X18335277Y4729999D01*
X18335277Y4730003D01*
X18331569Y4772382D01*
X18316207Y4947977D01*
X18299023Y5012109D01*
X18300686Y5081959D01*
X18331115Y5131881D01*
X18930520Y5731284D01*
X19009577Y5868216D01*
X19050501Y6020943D01*
X19050501Y6179058D01*
X19050501Y6186653D01*
X19050500Y6186671D01*
X19050500Y18599903D01*
X19070185Y18666942D01*
X19086819Y18687584D01*
X20680520Y20281284D01*
X20759577Y20418216D01*
X20766097Y20442552D01*
X20802459Y20502209D01*
X20865305Y20532740D01*
X20917964Y20530232D01*
X21052105Y20494290D01*
X21052115Y20494288D01*
X21269999Y20475225D01*
X21270001Y20475225D01*
X21487884Y20494288D01*
X21487894Y20494290D01*
X21699150Y20550895D01*
X21699164Y20550900D01*
X21897383Y20643331D01*
X21897385Y20643332D01*
X21959570Y20686876D01*
X21316446Y21330000D01*
X21322661Y21330000D01*
X21424394Y21357259D01*
X21515606Y21409920D01*
X21590080Y21484394D01*
X21642741Y21575606D01*
X21670000Y21677339D01*
X21670000Y21683554D01*
X22313124Y21040430D01*
X22356668Y21102615D01*
X22356669Y21102617D01*
X22427618Y21254767D01*
X22473790Y21307207D01*
X22540983Y21326359D01*
X22607865Y21306144D01*
X22652382Y21254768D01*
X22723333Y21102613D01*
X22766874Y21040429D01*
X23410000Y21683555D01*
X23410000Y21677339D01*
X23437259Y21575606D01*
X23489920Y21484394D01*
X23564394Y21409920D01*
X23655606Y21357259D01*
X23757339Y21330000D01*
X23763553Y21330000D01*
X23120427Y20686876D01*
X23182612Y20643334D01*
X23380840Y20550899D01*
X23380849Y20550895D01*
X23592105Y20494290D01*
X23592115Y20494288D01*
X23809999Y20475225D01*
X23810001Y20475225D01*
X24027884Y20494288D01*
X24027894Y20494290D01*
X24239150Y20550895D01*
X24239164Y20550900D01*
X24437383Y20643331D01*
X24437385Y20643332D01*
X24499571Y20686876D01*
X23856448Y21330000D01*
X23862661Y21330000D01*
X23964394Y21357259D01*
X24055606Y21409920D01*
X24130080Y21484394D01*
X24182741Y21575606D01*
X24210000Y21677339D01*
X24210000Y21683554D01*
X24853124Y21040430D01*
X24896668Y21102615D01*
X24896669Y21102617D01*
X24967618Y21254767D01*
X25013790Y21307207D01*
X25080983Y21326359D01*
X25147865Y21306144D01*
X25192382Y21254768D01*
X25263333Y21102613D01*
X25306874Y21040429D01*
X25950000Y21683555D01*
X25950000Y21677339D01*
X25977259Y21575606D01*
X26029920Y21484394D01*
X26104394Y21409920D01*
X26195606Y21357259D01*
X26297339Y21330000D01*
X26303553Y21330000D01*
X25660427Y20686876D01*
X25722612Y20643334D01*
X25920840Y20550899D01*
X25920849Y20550895D01*
X26132105Y20494290D01*
X26132115Y20494288D01*
X26349999Y20475225D01*
X26350001Y20475225D01*
X26567884Y20494288D01*
X26567894Y20494290D01*
X26779150Y20550895D01*
X26779164Y20550900D01*
X26977383Y20643331D01*
X26977385Y20643332D01*
X27039570Y20686876D01*
X26396448Y21330000D01*
X26402661Y21330000D01*
X26504394Y21357259D01*
X26595606Y21409920D01*
X26670080Y21484394D01*
X26722741Y21575606D01*
X26750000Y21677339D01*
X26750000Y21683554D01*
X27393124Y21040430D01*
X27436668Y21102615D01*
X27436669Y21102617D01*
X27507618Y21254767D01*
X27553790Y21307207D01*
X27620983Y21326359D01*
X27687865Y21306144D01*
X27732382Y21254768D01*
X27803333Y21102613D01*
X27846874Y21040429D01*
X28490000Y21683555D01*
X28490000Y21677339D01*
X28517259Y21575606D01*
X28569920Y21484394D01*
X28644394Y21409920D01*
X28735606Y21357259D01*
X28837339Y21330000D01*
X28843553Y21330000D01*
X28200427Y20686876D01*
X28262612Y20643334D01*
X28460840Y20550899D01*
X28460849Y20550895D01*
X28672105Y20494290D01*
X28672115Y20494288D01*
X28889999Y20475225D01*
X28890001Y20475225D01*
X29107884Y20494288D01*
X29107894Y20494290D01*
X29319150Y20550895D01*
X29319164Y20550900D01*
X29517383Y20643331D01*
X29517385Y20643332D01*
X29579571Y20686876D01*
X28936448Y21330000D01*
X28942661Y21330000D01*
X29044394Y21357259D01*
X29135606Y21409920D01*
X29210080Y21484394D01*
X29262741Y21575606D01*
X29290000Y21677339D01*
X29290000Y21683554D01*
X29933124Y21040430D01*
X29976666Y21102612D01*
X30047340Y21254175D01*
X30093512Y21306614D01*
X30160706Y21325767D01*
X30227587Y21305552D01*
X30272105Y21254176D01*
X30342897Y21102362D01*
X30342898Y21102361D01*
X30468402Y20923123D01*
X30623123Y20768402D01*
X30802361Y20642898D01*
X31000670Y20550425D01*
X31212023Y20493793D01*
X31394926Y20477792D01*
X31429998Y20474723D01*
X31430000Y20474723D01*
X31430002Y20474723D01*
X31458254Y20477195D01*
X31647977Y20493793D01*
X31859330Y20550425D01*
X32057639Y20642898D01*
X32236877Y20768402D01*
X32391598Y20923123D01*
X32517102Y21102361D01*
X32609575Y21300670D01*
X32666207Y21512023D01*
X32685277Y21730000D01*
X32666207Y21947977D01*
X32616458Y22133642D01*
X32609577Y22159323D01*
X32609576Y22159324D01*
X32609575Y22159330D01*
X32517102Y22357638D01*
X32517099Y22357642D01*
X32517099Y22357643D01*
X32391599Y22536876D01*
X32358995Y22569480D01*
X32236877Y22691598D01*
X32090733Y22793929D01*
X32047112Y22848503D01*
X32039919Y22918002D01*
X32071441Y22980356D01*
X32131671Y23015770D01*
X32161859Y23019501D01*
X32227872Y23019501D01*
X32287483Y23025909D01*
X32422331Y23076204D01*
X32537546Y23162454D01*
X32623796Y23277669D01*
X32674091Y23412517D01*
X32680500Y23472127D01*
X32680500Y23545500D01*
X32700185Y23612539D01*
X32752989Y23658294D01*
X32804500Y23669500D01*
X32979903Y23669500D01*
X33046942Y23649815D01*
X33067584Y23633181D01*
X33963181Y22737584D01*
X33996666Y22676261D01*
X33999500Y22649903D01*
X33999500Y12982413D01*
X33979815Y12915374D01*
X33972450Y12905104D01*
X33970186Y12902266D01*
X33874211Y12749524D01*
X33814631Y12579255D01*
X33814630Y12579250D01*
X33794435Y12400004D01*
X33794435Y12399997D01*
X33814630Y12220751D01*
X33814631Y12220746D01*
X33874211Y12050477D01*
X33970184Y11897738D01*
X34097738Y11770184D01*
X34250478Y11674211D01*
X34420745Y11614632D01*
X34420750Y11614631D01*
X34599996Y11594435D01*
X34600000Y11594435D01*
X34600004Y11594435D01*
X34779249Y11614631D01*
X34779252Y11614632D01*
X34779255Y11614632D01*
X34949522Y11674211D01*
X35102262Y11770184D01*
X35229816Y11897738D01*
X35325789Y12050478D01*
X35385368Y12220745D01*
X35405565Y12400000D01*
X35385368Y12579255D01*
X35325789Y12749522D01*
X35229816Y12902262D01*
X35229814Y12902264D01*
X35229813Y12902266D01*
X35227550Y12905104D01*
X35226659Y12907285D01*
X35226111Y12908158D01*
X35226264Y12908255D01*
X35201144Y12969791D01*
X35200500Y12982413D01*
X35200500Y22860941D01*
X35200501Y22860954D01*
X35200501Y23029055D01*
X35200501Y23029057D01*
X35159577Y23181785D01*
X35102572Y23280520D01*
X35080520Y23318716D01*
X34968716Y23430520D01*
X34968715Y23430521D01*
X34964385Y23434851D01*
X34964374Y23434861D01*
X33767590Y24631645D01*
X33767588Y24631648D01*
X33648717Y24750519D01*
X33648716Y24750520D01*
X33561904Y24800640D01*
X33561904Y24800641D01*
X33561900Y24800642D01*
X33511785Y24829577D01*
X33359057Y24870501D01*
X33200943Y24870501D01*
X33193347Y24870501D01*
X33193331Y24870500D01*
X32804499Y24870500D01*
X32737460Y24890185D01*
X32691705Y24942989D01*
X32680499Y24994500D01*
X32680499Y25067871D01*
X32680498Y25067877D01*
X32680497Y25067884D01*
X32674091Y25127483D01*
X32672958Y25130520D01*
X32623797Y25262329D01*
X32623793Y25262336D01*
X32537547Y25377545D01*
X32537544Y25377548D01*
X32422335Y25463794D01*
X32422328Y25463798D01*
X32287482Y25514092D01*
X32287483Y25514092D01*
X32227883Y25520499D01*
X32227881Y25520500D01*
X32227873Y25520500D01*
X32227864Y25520500D01*
X30632129Y25520500D01*
X30632123Y25520499D01*
X30572516Y25514092D01*
X30437671Y25463798D01*
X30437664Y25463794D01*
X30322455Y25377548D01*
X30322452Y25377545D01*
X30236206Y25262336D01*
X30236202Y25262329D01*
X30185908Y25127483D01*
X30180468Y25076877D01*
X30179501Y25067877D01*
X30179500Y25067865D01*
X30179500Y25001862D01*
X30159815Y24934823D01*
X30107011Y24889068D01*
X30037853Y24879124D01*
X29974297Y24908149D01*
X29953925Y24930739D01*
X29851599Y25076876D01*
X29778975Y25149500D01*
X29696877Y25231598D01*
X29652979Y25262336D01*
X29543376Y25339082D01*
X29499751Y25393659D01*
X29492378Y25431111D01*
X29491560Y25431003D01*
X29490499Y25439061D01*
X29472508Y25506206D01*
X29449576Y25591787D01*
X29439918Y25608515D01*
X29403875Y25670943D01*
X29370520Y25728716D01*
X29258716Y25840520D01*
X29258715Y25840521D01*
X29254385Y25844851D01*
X29254374Y25844861D01*
X28987590Y26111645D01*
X28987588Y26111648D01*
X28868717Y26230519D01*
X28868716Y26230520D01*
X28781904Y26280640D01*
X28781904Y26280641D01*
X28781900Y26280642D01*
X28731785Y26309577D01*
X28579057Y26350501D01*
X28420943Y26350501D01*
X28413347Y26350501D01*
X28413331Y26350500D01*
X7836669Y26350500D01*
X7836653Y26350501D01*
X7829057Y26350501D01*
X7670943Y26350501D01*
X7563587Y26321735D01*
X7518210Y26309576D01*
X7518209Y26309575D01*
X7468096Y26280641D01*
X7468095Y26280640D01*
X7424689Y26255580D01*
X7381285Y26230521D01*
X7381282Y26230519D01*
X6169479Y25018716D01*
X6155499Y24994500D01*
X6141045Y24969464D01*
X6090423Y24881785D01*
X6049499Y24729057D01*
X6049499Y24729055D01*
X6049499Y24560954D01*
X6049500Y24560941D01*
X6049500Y9336670D01*
X6049499Y9336652D01*
X6049499Y9170946D01*
X6049498Y9170946D01*
X6087126Y9030521D01*
X6090423Y9018215D01*
X6100651Y9000500D01*
X6169477Y8881288D01*
X6169481Y8881283D01*
X6283181Y8767583D01*
X6316666Y8706260D01*
X6319500Y8679902D01*
X6319500Y8501694D01*
X6299815Y8434655D01*
X6266623Y8400119D01*
X6080859Y8270047D01*
X5919954Y8109142D01*
X5789432Y7922735D01*
X5789431Y7922733D01*
X5693261Y7716498D01*
X5693258Y7716489D01*
X5634366Y7496698D01*
X5634364Y7496687D01*
X5614532Y7270002D01*
X500500Y7270002D01*
X500500Y29375500D01*
X520185Y29442539D01*
X572989Y29488294D01*
X624500Y29499500D01*
X39375500Y29499500D01*
X39442539Y29479815D01*
G37*
%TD.AperFunction*%
%TD*%
M02*
